<svg width="121" height="130" viewBox="0 0 121 130" fill="none" xmlns="http://www.w3.org/2000/svg">
<path fill-rule="evenodd" clip-rule="evenodd" d="M39.2213 5.4632H83.0783C83.5338 5.4632 83.9866 5.49232 84.4367 5.55058C102.289 6.79901 116.151 21.6142 116.211 39.5098V90.5796C116.146 109.423 100.833 124.653 81.99 124.618H39.2213C20.3751 124.653 5.06133 109.418 5 90.5716V39.5098C5.06133 20.6636 20.3751 5.42803 39.2213 5.4632Z" stroke="#8391A1" stroke-width="8.93663" stroke-linecap="round" stroke-linejoin="round"/>
<path d="M116.232 43.9778C118.7 43.9778 120.7 41.9773 120.7 39.5095C120.7 37.0417 118.7 35.0412 116.232 35.0412V43.9778ZM84.4571 39.5095H79.9888C79.9888 41.9773 81.9894 43.9778 84.4571 43.9778V39.5095ZM88.9254 5.55029C88.9254 3.08251 86.9249 1.08198 84.4571 1.08198C81.9894 1.08198 79.9888 3.08251 79.9888 5.55029H88.9254ZM76.498 73.4807C78.9657 73.4807 80.9663 71.4802 80.9663 69.0124C80.9663 66.5446 78.9657 64.5441 76.498 64.5441V73.4807ZM28.8359 64.5441C26.3682 64.5441 24.3676 66.5446 24.3676 69.0124C24.3676 71.4802 26.3682 73.4807 28.8359 73.4807V64.5441ZM52.6669 49.6497C55.1347 49.6497 57.1353 47.6491 57.1353 45.1814C57.1353 42.7136 55.1347 40.7131 52.6669 40.7131V49.6497ZM28.8359 40.7131C26.3682 40.7131 24.3676 42.7136 24.3676 45.1814C24.3676 47.6491 26.3682 49.6497 28.8359 49.6497V40.7131ZM84.4416 97.3117C86.9094 97.3117 88.9099 95.3112 88.9099 92.8434C88.9099 90.3756 86.9094 88.3751 84.4416 88.3751V97.3117ZM28.8359 88.3751C26.3682 88.3751 24.3676 90.3756 24.3676 92.8434C24.3676 95.3112 26.3682 97.3117 28.8359 97.3117V88.3751ZM116.232 35.0412H84.4571V43.9778H116.232V35.0412ZM88.9254 39.5095V5.55029H79.9888V39.5095H88.9254ZM76.498 64.5441H28.8359V73.4807H76.498V64.5441ZM52.6669 40.7131H28.8359V49.6497H52.6669V40.7131ZM84.4416 88.3751H28.8359V97.3117H84.4416V88.3751Z" fill="#8391A1"/>
</svg>
