<svg width="121" height="122" viewBox="0 0 121 122" fill="none" xmlns="http://www.w3.org/2000/svg">
<path fill-rule="evenodd" clip-rule="evenodd" d="M21.8102 21.8918L43.5123 9.81739C54.0958 3.95573 66.9516 3.95573 77.5351 9.81739L99.2372 21.8918C109.594 27.5536 116.061 38.3917 116.125 50.1951V83.4155C116.11 92.506 112.307 101.179 105.632 107.35C99.1891 113.346 90.7057 116.666 81.9041 116.636H39.1354C30.3338 116.666 21.8504 113.346 15.4076 107.35C8.73244 101.179 4.92995 92.506 4.91406 83.4155V50.1951C4.97994 38.39 11.4502 27.5515 21.8102 21.8918Z" stroke="#8391A1" stroke-width="8.93663" stroke-linecap="round" stroke-linejoin="round"/>
<path d="M42.0078 116.634V105.513C42.0078 95.2757 50.3069 86.9766 60.5444 86.9766C70.7818 86.9766 79.0809 95.2757 79.0809 105.513V116.634" stroke="#8391A1" stroke-width="8.93663" stroke-linecap="round" stroke-linejoin="round"/>
</svg>
