<svg width="134" height="125" viewBox="0 0 134 125" fill="none" xmlns="http://www.w3.org/2000/svg">
<path d="M50.9861 37.4108C50.9861 34.943 48.9855 32.9424 46.5177 32.9424C44.05 32.9424 42.0494 34.943 42.0494 37.4108H50.9861ZM91.8669 37.4108C91.8669 34.943 89.8664 32.9424 87.3986 32.9424C84.9308 32.9424 82.9303 34.943 82.9303 37.4108H91.8669ZM42.0607 37.3337C42.0183 39.8012 43.9841 41.8358 46.4515 41.8782C48.919 41.9206 50.9536 39.9547 50.996 37.4873L42.0607 37.3337ZM51.0846 32.3306C51.127 29.8632 49.1611 27.8286 46.6937 27.7862C44.2263 27.7438 42.1917 29.7097 42.1493 32.1771L51.0846 32.3306ZM50.8514 38.4977C51.4517 36.1041 49.9979 33.677 47.6043 33.0767C45.2106 32.4763 42.7835 33.9301 42.1832 36.3238L50.8514 38.4977ZM45.1262 42.9572L49.4496 44.0861C49.4532 44.0721 49.4568 44.0582 49.4603 44.0442L45.1262 42.9572ZM32.4836 56.9199L34.0348 61.1103L34.0348 61.1103L32.4836 56.9199ZM16.3428 50.8833C14.3149 49.4771 11.531 49.9811 10.1248 52.009C8.71855 54.0369 9.22255 56.8209 11.2505 58.2271L16.3428 50.8833ZM18.2879 54.6011C18.3132 52.1334 16.3332 50.1125 13.8656 50.0872C11.3979 50.0619 9.37701 52.0419 9.35172 54.5095L18.2879 54.6011ZM13.3325 102.108L17.8005 102.161L17.8006 102.154L13.3325 102.108ZM18.4469 114.776L15.2685 117.916L15.2685 117.916L18.4469 114.776ZM31.0528 120.041L31.0528 115.572L31.0525 115.572L31.0528 120.041ZM49.2605 124.509C51.7283 124.509 53.7288 122.509 53.7288 120.041C53.7288 117.573 51.7283 115.572 49.2605 115.572V124.509ZM11.2527 58.2185C13.2764 59.6309 16.0618 59.1353 17.4742 57.1117C18.8865 55.088 18.391 52.3026 16.3673 50.8902L11.2527 58.2185ZM5.64981 32.2533L1.46112 30.6975C1.41146 30.8312 1.36822 30.9672 1.33157 31.105L5.64981 32.2533ZM13.0481 12.3357L17.2367 13.8915C17.2798 13.7756 17.318 13.6579 17.3513 13.5388L13.0481 12.3357ZM22.874 4.85767L22.874 0.389334L22.861 0.389371L22.874 4.85767ZM111.059 4.85767L111.072 0.389352H111.059V4.85767ZM120.885 12.3357L116.582 13.5388C116.615 13.6577 116.653 13.7752 116.696 13.8909L120.885 12.3357ZM128.283 32.2622L132.602 31.1143C132.565 30.9766 132.522 30.8406 132.472 30.7069L128.283 32.2622ZM117.573 50.8916C115.55 52.3051 115.056 55.0908 116.469 57.1137C117.883 59.1366 120.669 59.6306 122.691 58.2171L117.573 50.8916ZM44.7956 120.041C44.7956 122.509 46.7961 124.509 49.2639 124.509C51.7317 124.509 53.7322 122.509 53.7322 120.041H44.7956ZM80.2363 120.041C80.2363 122.509 82.2368 124.509 84.7046 124.509C87.1724 124.509 89.1729 122.509 89.1729 120.041H80.2363ZM49.2639 115.572C46.7961 115.572 44.7956 117.573 44.7956 120.041C44.7956 122.508 46.7961 124.509 49.2639 124.509V115.572ZM84.7046 124.509C87.1724 124.509 89.1729 122.508 89.1729 120.041C89.1729 117.573 87.1724 115.572 84.7046 115.572V124.509ZM82.9555 37.4642C82.9852 39.9318 85.0097 41.9082 87.4773 41.8785C89.9449 41.8488 91.9212 39.8244 91.8915 37.3568L82.9555 37.4642ZM91.8295 32.2001C91.7998 29.7325 89.7754 27.7562 87.3078 27.7859C84.8402 27.8156 82.8638 29.84 82.8935 32.3076L91.8295 32.2001ZM91.7636 36.3188C91.1606 33.9259 88.7318 32.4749 86.3388 33.0779C83.9459 33.681 82.4949 36.1097 83.0979 38.5027L91.7636 36.3188ZM88.8218 42.9306L84.4889 44.0225C84.4919 44.0344 84.495 44.0462 84.498 44.058L88.8218 42.9306ZM101.447 56.893L99.8912 61.0818L99.8912 61.0818L101.447 56.893ZM122.665 58.2314C124.695 56.8286 125.204 54.0455 123.801 52.0152C122.398 49.9849 119.615 49.4762 117.585 50.879L122.665 58.2314ZM124.593 54.512C124.569 52.0443 122.55 50.0633 120.082 50.0872C117.614 50.1111 115.633 52.1309 115.657 54.5986L124.593 54.512ZM120.586 102.108L116.118 102.151L116.118 102.161L120.586 102.108ZM115.472 114.776L112.293 111.635L112.293 111.635L115.472 114.776ZM102.866 120.041L102.866 115.572H102.866V120.041ZM84.6846 115.572C82.2168 115.572 80.2163 117.573 80.2163 120.041C80.2163 122.509 82.2168 124.509 84.6846 124.509V115.572ZM42.0494 37.4108C42.0494 51.1675 53.2015 62.3195 66.9582 62.3195V53.3829C58.137 53.3829 50.9861 46.2319 50.9861 37.4108H42.0494ZM66.9582 62.3195C80.7149 62.3195 91.8669 51.1675 91.8669 37.4108H82.9303C82.9303 46.2319 75.7793 53.3829 66.9582 53.3829V62.3195ZM50.996 37.4873L51.0846 32.3306L42.1493 32.1771L42.0607 37.3337L50.996 37.4873ZM42.1832 36.3238L40.7921 41.8702L49.4603 44.0442L50.8514 38.4977L42.1832 36.3238ZM40.8029 41.8284C39.4902 46.8559 35.8052 50.9256 30.9323 52.7295L34.0348 61.1103C41.6448 58.2932 47.3996 51.9375 49.4496 44.0861L40.8029 41.8284ZM30.9323 52.7295C26.0595 54.5334 20.6128 53.8441 16.3428 50.8833L11.2505 58.2271C17.9188 62.851 26.4249 63.9274 34.0348 61.1103L30.9323 52.7295ZM9.35172 54.5095L8.86441 102.062L17.8006 102.154L18.2879 54.6011L9.35172 54.5095ZM8.8645 102.054C8.79332 107.985 11.0996 113.697 15.2685 117.916L21.6252 111.635C19.1354 109.115 17.758 105.704 17.8005 102.161L8.8645 102.054ZM15.2685 117.916C19.4374 122.135 25.1219 124.51 31.0532 124.509L31.0525 115.572C27.5101 115.573 24.1151 114.155 21.6252 111.635L15.2685 117.916ZM31.0528 124.509H49.2605V115.572H31.0528V124.509ZM16.3673 50.8902C10.7712 46.9846 8.21428 39.9967 9.96805 33.4016L1.33157 31.105C-1.3874 41.3297 2.57677 52.1634 11.2527 58.2185L16.3673 50.8902ZM9.8385 33.8092L17.2367 13.8915L8.85936 10.7798L1.46112 30.6975L9.8385 33.8092ZM17.3513 13.5388C18.046 11.0541 20.3069 9.33343 22.8869 9.32596L22.861 0.389371C16.2818 0.408414 10.5163 4.79627 8.74476 11.1325L17.3513 13.5388ZM22.874 9.32598H111.059V0.389352H22.874V9.32598ZM111.046 9.32596C113.626 9.33343 115.887 11.0541 116.582 13.5388L125.188 11.1325C123.417 4.79627 117.651 0.408414 111.072 0.389371L111.046 9.32596ZM116.696 13.8909L124.095 33.8174L132.472 30.7069L125.074 10.7804L116.696 13.8909ZM123.965 33.41C125.717 40.0014 123.163 46.9851 117.573 50.8916L122.691 58.2171C131.359 52.1607 135.318 41.3334 132.602 31.1143L123.965 33.41ZM53.7322 120.041V93.4602H44.7956V120.041H53.7322ZM53.7322 93.4602C53.7322 91.0347 55.6985 89.0684 58.1241 89.0684V80.1317C50.763 80.1317 44.7956 86.0991 44.7956 93.4602H53.7322ZM58.1241 89.0684H75.8444V80.1317H58.1241V89.0684ZM75.8444 89.0684C78.27 89.0684 80.2363 91.0347 80.2363 93.4602H89.1729C89.1729 86.0991 83.2055 80.1317 75.8444 80.1317V89.0684ZM80.2363 93.4602V120.041H89.1729V93.4602H80.2363ZM49.2639 124.509H84.7046V115.572H49.2639V124.509ZM91.8915 37.3568L91.8295 32.2001L82.8935 32.3076L82.9555 37.4642L91.8915 37.3568ZM83.0979 38.5027L84.4889 44.0225L93.1546 41.8387L91.7636 36.3188L83.0979 38.5027ZM84.498 44.058C86.5438 51.9044 92.2896 58.2589 99.8912 61.0818L103.002 52.7042C98.1348 50.8966 94.4555 46.8276 93.1456 41.8033L84.498 44.058ZM99.8912 61.0818C107.493 63.9047 115.993 62.8407 122.665 58.2314L117.585 50.879C113.313 53.8305 107.87 54.5118 103.002 52.7042L99.8912 61.0818ZM115.657 54.5986L116.118 102.151L125.054 102.065L124.593 54.512L115.657 54.5986ZM116.118 102.161C116.161 105.704 114.783 109.115 112.293 111.635L118.65 117.916C122.819 113.697 125.125 107.985 125.054 102.054L116.118 102.161ZM112.293 111.635C109.803 114.155 106.408 115.573 102.866 115.572L102.865 124.509C108.797 124.51 114.481 122.135 118.65 117.916L112.293 111.635ZM102.866 115.572H84.6846V124.509H102.866V115.572Z" fill="white"/>
</svg>
