<svg width="63" height="63" viewBox="0 0 63 63" fill="none" xmlns="http://www.w3.org/2000/svg">
<g clip-path="url(#clip0_1_6)">
<path d="M31.5 62.5C48.6208 62.5 62.5 48.6208 62.5 31.5C62.5 14.3792 48.6208 0.5 31.5 0.5C14.3792 0.5 0.5 14.3792 0.5 31.5C0.5 48.6208 14.3792 62.5 31.5 62.5Z" fill="white" stroke="#D9D9D9"/>
<path d="M24.5 34.75C24.5 34.3358 24.1642 34 23.75 34C23.3358 34 23 34.3358 23 34.75H24.5ZM23.75 35.75H23H23.75ZM38.5 34.75C38.5 34.3358 38.1642 34 37.75 34C37.3358 34 37 34.3358 37 34.75H38.5ZM31.3357 25.2185C31.5944 24.8951 31.542 24.4231 31.2185 24.1644C30.8951 23.9056 30.4231 23.9581 30.1644 24.2815L31.3357 25.2185ZM26.1644 29.2815C25.9056 29.605 25.958 30.0769 26.2815 30.3357C26.6049 30.5944 27.0769 30.542 27.3356 30.2185L26.1644 29.2815ZM31.3357 24.2815C31.0769 23.9581 30.6049 23.9056 30.2815 24.1644C29.958 24.4231 29.9056 24.8951 30.1644 25.2185L31.3357 24.2815ZM34.1643 30.2185C34.4231 30.542 34.8951 30.5944 35.2185 30.3357C35.542 30.0769 35.5944 29.605 35.3357 29.2815L34.1643 30.2185ZM31.5 24.75C31.5 24.3358 31.1642 24 30.75 24C30.3358 24 30 24.3358 30 24.75H31.5ZM30 35.75C30 36.1642 30.3358 36.5 30.75 36.5C31.1642 36.5 31.5 36.1642 31.5 35.75H30ZM23 34.75V35.75H24.5V34.75H23ZM23 35.75C23 37.8211 24.6789 39.5 26.75 39.5V38C25.5074 38 24.5 36.9926 24.5 35.75H23ZM26.75 39.5H34.75V38H26.75V39.5ZM34.75 39.5C36.8211 39.5 38.5 37.8211 38.5 35.75H37C37 36.9926 35.9926 38 34.75 38V39.5ZM38.5 35.75V34.75H37V35.75H38.5ZM30.1644 24.2815L26.1644 29.2815L27.3356 30.2185L31.3357 25.2185L30.1644 24.2815ZM30.1644 25.2185L34.1643 30.2185L35.3357 29.2815L31.3357 24.2815L30.1644 25.2185ZM30 24.75V35.75H31.5V24.75H30Z" fill="#8391A1"/>
</g>
<defs>
<clipPath id="clip0_1_6">
<rect width="63" height="63" fill="white"/>
</clipPath>
</defs>
</svg>
