<svg width="105" height="121" viewBox="0 0 105 121" fill="none" xmlns="http://www.w3.org/2000/svg">
<path fill-rule="evenodd" clip-rule="evenodd" d="M72.338 76.493H32.985C21.4027 77.068 11.1412 84.1427 6.48495 94.7635C0.868775 105.789 12.0773 116.211 25.1129 116.211H80.2101C93.2536 116.211 104.462 105.789 98.838 94.7635C94.1818 84.1427 83.9203 77.068 72.338 76.493Z" stroke="#8391A1" stroke-width="8.93663" stroke-linecap="round" stroke-linejoin="round"/>
<path fill-rule="evenodd" clip-rule="evenodd" d="M76.4901 28.831C76.4901 41.9925 65.8206 52.662 52.6591 52.662C39.4976 52.662 28.8281 41.9925 28.8281 28.831C28.8281 15.6695 39.4976 5 52.6591 5C58.9795 5 65.041 7.51076 69.5102 11.9799C73.9794 16.4491 76.4901 22.5106 76.4901 28.831Z" stroke="#8391A1" stroke-width="8.93663" stroke-linecap="round" stroke-linejoin="round"/>
</svg>
