<svg width="106" height="121" viewBox="0 0 106 121" fill="none" xmlns="http://www.w3.org/2000/svg">
<path fill-rule="evenodd" clip-rule="evenodd" d="M72.6661 76.493H33.3132C21.7308 77.068 11.4694 84.1427 6.81307 94.7635C1.1969 105.789 12.4054 116.211 25.441 116.211H80.5383C93.5818 116.211 104.79 105.789 99.1662 94.7635C94.5099 84.1427 84.2484 77.068 72.6661 76.493Z" stroke="white" stroke-width="8.93663" stroke-linecap="round" stroke-linejoin="round"/>
<path fill-rule="evenodd" clip-rule="evenodd" d="M76.8183 28.831C76.8183 41.9925 66.1488 52.662 52.9873 52.662C39.8258 52.662 29.1562 41.9925 29.1562 28.831C29.1562 15.6695 39.8258 5 52.9873 5C59.3076 5 65.3691 7.51076 69.8383 11.9799C74.3075 16.4491 76.8183 22.5106 76.8183 28.831Z" stroke="white" stroke-width="8.93663" stroke-linecap="round" stroke-linejoin="round"/>
</svg>
