<svg width="16" height="17" viewBox="0 0 16 17" fill="none" xmlns="http://www.w3.org/2000/svg">
<path fill-rule="evenodd" clip-rule="evenodd" d="M5.308 1.00001H10.829C10.8863 1.00001 10.9433 1.00367 11 1.01101C13.2473 1.16817 14.9924 3.0332 15 5.28601V11.715C14.9917 14.0871 13.0641 16.0044 10.692 16H5.308C2.93551 16.0044 1.00772 14.0865 1 11.714V5.28601C1.00772 2.91353 2.93551 0.995581 5.308 1.00001Z" stroke="#8391A1" stroke-width="1.5" stroke-linecap="round" stroke-linejoin="round"/>
<path d="M15 6.03574C15.4142 6.03574 15.75 5.69996 15.75 5.28574C15.75 4.87153 15.4142 4.53574 15 4.53574V6.03574ZM11 5.28574H10.25C10.25 5.69996 10.5858 6.03574 11 6.03574V5.28574ZM11.75 1.01074C11.75 0.596529 11.4142 0.260742 11 0.260742C10.5858 0.260742 10.25 0.596529 10.25 1.01074H11.75ZM10 9.74974C10.4142 9.74974 10.75 9.41396 10.75 8.99974C10.75 8.58553 10.4142 8.24974 10 8.24974V9.74974ZM4 8.24974C3.58579 8.24974 3.25 8.58553 3.25 8.99974C3.25 9.41396 3.58579 9.74974 4 9.74974V8.24974ZM7 6.74974C7.41421 6.74974 7.75 6.41396 7.75 5.99974C7.75 5.58553 7.41421 5.24974 7 5.24974V6.74974ZM4 5.24974C3.58579 5.24974 3.25 5.58553 3.25 5.99974C3.25 6.41396 3.58579 6.74974 4 6.74974V5.24974ZM11 12.7497C11.4142 12.7497 11.75 12.414 11.75 11.9997C11.75 11.5855 11.4142 11.2497 11 11.2497V12.7497ZM4 11.2497C3.58579 11.2497 3.25 11.5855 3.25 11.9997C3.25 12.414 3.58579 12.7497 4 12.7497V11.2497ZM15 4.53574H11V6.03574H15V4.53574ZM11.75 5.28574V1.01074H10.25V5.28574H11.75ZM10 8.24974H4V9.74974H10V8.24974ZM7 5.24974H4V6.74974H7V5.24974ZM11 11.2497H4V12.7497H11V11.2497Z" fill="#8391A1"/>
</svg>
