<svg width="21" height="16" viewBox="0 0 21 16" fill="none" xmlns="http://www.w3.org/2000/svg">
<path fill-rule="evenodd" clip-rule="evenodd" d="M12.875 3.375C12.875 4.68668 11.8117 5.75 10.5 5.75C9.18832 5.75 8.125 4.68668 8.125 3.375C8.125 2.06332 9.18832 1 10.5 1C11.8117 1 12.875 2.06332 12.875 3.375Z" stroke="#8391A1" stroke-width="1.5" stroke-linecap="round" stroke-linejoin="round"/>
<path fill-rule="evenodd" clip-rule="evenodd" d="M15.25 11.7748C15.25 13.5748 13.123 15.0418 10.5 15.0418C7.877 15.0418 5.75 13.5788 5.75 11.7748C5.75 9.97079 7.877 8.50879 10.5 8.50879C13.123 8.50879 15.25 9.97079 15.25 11.7748Z" stroke="#8391A1" stroke-width="1.5" stroke-linecap="round" stroke-linejoin="round"/>
<path fill-rule="evenodd" clip-rule="evenodd" d="M17.9001 5.55288C17.9103 6.13141 17.5696 6.65864 17.038 6.8871C16.5064 7.11556 15.8894 6.9999 15.4767 6.59439C15.0639 6.18888 14.9374 5.57405 15.1564 5.03849C15.3754 4.50293 15.8965 4.15297 16.4751 4.15288C17.2551 4.14623 17.893 4.77289 17.9001 5.55288V5.55288Z" stroke="#8391A1" stroke-width="1.5" stroke-linecap="round" stroke-linejoin="round"/>
<path fill-rule="evenodd" clip-rule="evenodd" d="M3.10007 5.55288C3.08992 6.13141 3.4306 6.65864 3.9622 6.8871C4.49381 7.11556 5.11078 6.9999 5.52353 6.59439C5.93627 6.18888 6.06284 5.57405 5.84382 5.03849C5.62481 4.50293 5.10369 4.15297 4.52507 4.15288C3.74507 4.14623 3.10722 4.77289 3.10007 5.55288Z" stroke="#8391A1" stroke-width="1.5" stroke-linecap="round" stroke-linejoin="round"/>
<path d="M17.2169 13.3623C16.8043 13.3253 16.4399 13.6298 16.403 14.0424C16.366 14.455 16.6705 14.8194 17.0831 14.8563L17.2169 13.3623ZM20 11.7753L20.7455 11.857C20.7515 11.8026 20.7515 11.7477 20.7455 11.6933L20 11.7753ZM17.0831 8.69528C16.6705 8.73224 16.366 9.09665 16.403 9.50921C16.44 9.92177 16.8044 10.2263 17.2169 10.1893L17.0831 8.69528ZM3.91689 14.8563C4.32945 14.8194 4.63395 14.455 4.59701 14.0424C4.56007 13.6298 4.19567 13.3253 3.78311 13.3623L3.91689 14.8563ZM1 11.7753L0.254491 11.6933C0.248513 11.7477 0.248503 11.8026 0.25446 11.857L1 11.7753ZM3.78308 10.1893C4.19564 10.2263 4.56005 9.92177 4.59701 9.50921C4.63397 9.09665 4.32948 8.73224 3.91692 8.69528L3.78308 10.1893ZM17.0831 14.8563C18.9169 15.0205 20.545 13.6872 20.7455 11.857L19.2545 11.6936C19.1429 12.7118 18.2371 13.4536 17.2169 13.3623L17.0831 14.8563ZM20.7455 11.6933C20.5444 9.86363 18.9165 8.53104 17.0831 8.69528L17.2169 10.1893C18.2369 10.0979 19.1426 10.8393 19.2545 11.8572L20.7455 11.6933ZM3.78311 13.3623C2.76287 13.4536 1.85709 12.7118 1.74554 11.6936L0.25446 11.857C0.454963 13.6872 2.08306 15.0205 3.91689 14.8563L3.78311 13.3623ZM1.74551 11.8572C1.85742 10.8393 2.76309 10.0979 3.78308 10.1893L3.91692 8.69528C2.08354 8.53104 0.455639 9.86363 0.254491 11.6933L1.74551 11.8572Z" fill="#8391A1"/>
</svg>
