<svg width="16" height="16" viewBox="0 0 16 16" fill="none" xmlns="http://www.w3.org/2000/svg">
<path fill-rule="evenodd" clip-rule="evenodd" d="M1.74033 4.16807C2.49433 3.37307 2.76133 3.15007 3.08233 3.04707C3.30482 2.98855 3.53822 2.98512 3.76233 3.03707C4.05733 3.12307 4.13433 3.18807 5.10233 4.15107C5.95233 4.99707 6.03633 5.08907 6.11833 5.25107C6.27694 5.54265 6.30244 5.88837 6.18833 6.20007C6.10433 6.43507 5.98033 6.59107 5.46533 7.10907L5.12933 7.44607C5.04093 7.53574 5.01997 7.67198 5.07733 7.78407C5.82321 9.05664 6.88119 10.1181 8.15133 10.8681C8.29782 10.9466 8.47832 10.9211 8.59733 10.8051L8.92033 10.4871C9.11991 10.2823 9.33127 10.0893 9.55333 9.90907C9.90152 9.69362 10.3362 9.67283 10.7033 9.85407C10.8823 9.93807 10.9423 9.99307 11.8193 10.8671C12.7193 11.7671 12.7483 11.7961 12.8493 12.0031C13.0379 12.346 13.036 12.7619 12.8443 13.1031C12.7443 13.2951 12.6883 13.3651 12.1803 13.8841C11.8733 14.1981 11.5803 14.4841 11.5383 14.5261C11.1188 14.8728 10.581 15.0431 10.0383 15.0011C9.04554 14.9102 8.08469 14.603 7.22333 14.1011C5.31416 13.0896 3.68898 11.6156 2.49633 9.81407C2.23552 9.43744 2.00353 9.04164 1.80233 8.63007C1.26624 7.71104 0.989089 6.66397 1.00033 5.60007C1.04065 5.04159 1.3081 4.52404 1.74033 4.16807Z" stroke="#4C5967" stroke-width="1.5" stroke-linecap="round" stroke-linejoin="round"/>
<path d="M10.3416 0.294091C9.95178 0.154163 9.5223 0.356775 9.38237 0.746638C9.24244 1.1365 9.44506 1.56598 9.83492 1.70591L10.3416 0.294091ZM14.2867 6.08324C14.4332 6.47068 14.8661 6.66602 15.2535 6.51953C15.641 6.37305 15.8363 5.94021 15.6898 5.55276L14.2867 6.08324ZM9.1535 2.52142C8.74946 2.43018 8.34795 2.68374 8.25671 3.08778C8.16546 3.49182 8.41902 3.89333 8.82306 3.98458L9.1535 2.52142ZM12.0696 7.17739C12.1675 7.57985 12.5732 7.82669 12.9757 7.72872C13.3781 7.63075 13.625 7.22507 13.527 6.82261L12.0696 7.17739ZM9.83492 1.70591C11.8882 2.44286 13.5153 4.04271 14.2867 6.08324L15.6898 5.55276C14.763 3.10139 12.8083 1.17942 10.3416 0.294091L9.83492 1.70591ZM8.82306 3.98458C10.4237 4.34607 11.6814 5.58301 12.0696 7.17739L13.527 6.82261C13.0041 4.67475 11.3098 3.0084 9.1535 2.52142L8.82306 3.98458Z" fill="#4C5967"/>
</svg>
