<svg width="16" height="18" viewBox="0 0 16 18" fill="none" xmlns="http://www.w3.org/2000/svg">
<path fill-rule="evenodd" clip-rule="evenodd" d="M1 7V13C1 15.2091 2.79086 17 5 17H11C13.2091 17 15 15.2091 15 13V7C15 4.79086 13.2091 3 11 3H5C2.79086 3 1 4.79086 1 7Z" stroke="#8391A1" stroke-width="1.5" stroke-linecap="round" stroke-linejoin="round"/>
<path fill-rule="evenodd" clip-rule="evenodd" d="M5.28202 8.64105C5.00715 8.36621 4.92492 7.95286 5.07366 7.59375C5.2224 7.23464 5.57282 7.00049 5.96152 7.00049C6.35021 7.00049 6.70063 7.23464 6.84937 7.59375C6.99811 7.95286 6.91588 8.36621 6.64102 8.64105C6.26573 9.0163 5.6573 9.0163 5.28202 8.64105V8.64105Z" stroke="#8391A1" stroke-width="1.5" stroke-linecap="round"/>
<path fill-rule="evenodd" clip-rule="evenodd" d="M9.35892 12.7177C9.08406 12.4429 9.00182 12.0295 9.15056 11.6704C9.2993 11.3113 9.64972 11.0771 10.0384 11.0771C10.4271 11.0771 10.7775 11.3113 10.9263 11.6704C11.075 12.0295 10.9928 12.4429 10.7179 12.7177C10.3426 13.093 9.73421 13.093 9.35892 12.7177V12.7177Z" stroke="#8391A1" stroke-width="1.5" stroke-linecap="round"/>
<path d="M10.25 4C10.25 4.41421 10.5858 4.75 11 4.75C11.4142 4.75 11.75 4.41421 11.75 4H10.25ZM11.75 1C11.75 0.585786 11.4142 0.25 11 0.25C10.5858 0.25 10.25 0.585786 10.25 1H11.75ZM4.25 4C4.25 4.41421 4.58579 4.75 5 4.75C5.41421 4.75 5.75 4.41421 5.75 4H4.25ZM5.75 1C5.75 0.585786 5.41421 0.25 5 0.25C4.58579 0.25 4.25 0.585786 4.25 1H5.75ZM11.2484 7.81128C11.5412 7.51836 11.5412 7.04349 11.2483 6.75062C10.9554 6.45775 10.4805 6.4578 10.1876 6.75072L11.2484 7.81128ZM4.75062 12.1887C4.45775 12.4816 4.4578 12.9565 4.75072 13.2494C5.04364 13.5422 5.51851 13.5422 5.81138 13.2493L4.75062 12.1887ZM11.75 4V1H10.25V4H11.75ZM5.75 4V1H4.25V4H5.75ZM10.1876 6.75072L4.75062 12.1887L5.81138 13.2493L11.2484 7.81128L10.1876 6.75072Z" fill="#8391A1"/>
</svg>
