<svg width="16" height="16" viewBox="0 0 16 16" fill="none" xmlns="http://www.w3.org/2000/svg">
<path fill-rule="evenodd" clip-rule="evenodd" d="M11 15H5C2.79086 15 1 13.2091 1 11V5C1 2.79086 2.79086 1 5 1H11C13.2091 1 15 2.79086 15 5V11C15 13.2091 13.2091 15 11 15Z" stroke="#8391A1" stroke-width="1.5" stroke-linecap="round" stroke-linejoin="round"/>
<path d="M15 5.75C15.4142 5.75 15.75 5.41421 15.75 5C15.75 4.58579 15.4142 4.25 15 4.25V5.75ZM1 4.25C0.585786 4.25 0.25 4.58579 0.25 5C0.25 5.41421 0.585786 5.75 1 5.75V4.25ZM7 10.25C6.58579 10.25 6.25 10.5858 6.25 11C6.25 11.4142 6.58579 11.75 7 11.75V10.25ZM9 11.75C9.41421 11.75 9.75 11.4142 9.75 11C9.75 10.5858 9.41421 10.25 9 10.25V11.75ZM15 4.25H1V5.75H15V4.25ZM7 11.75H9V10.25H7V11.75Z" fill="#8391A1"/>
</svg>
