<svg width="16" height="16" viewBox="0 0 16 16" fill="none" xmlns="http://www.w3.org/2000/svg">
<path fill-rule="evenodd" clip-rule="evenodd" d="M7.99998 3.333C7.99998 4.62148 6.95546 5.666 5.66698 5.666C4.3785 5.666 3.33398 4.62148 3.33398 3.333C3.33398 2.04452 4.3785 1 5.66698 1C6.95546 1 7.99998 2.04452 7.99998 3.333Z" stroke="#8391A1" stroke-width="1.5" stroke-linecap="round" stroke-linejoin="round"/>
<path fill-rule="evenodd" clip-rule="evenodd" d="M10.333 11.7328C10.333 13.5328 8.244 14.9998 5.666 14.9998C3.088 14.9998 1 13.5368 1 11.7328C1 9.9288 3.089 8.4668 5.667 8.4668C8.245 8.4668 10.333 9.9288 10.333 11.7328Z" stroke="#8391A1" stroke-width="1.5" stroke-linecap="round" stroke-linejoin="round"/>
<path fill-rule="evenodd" clip-rule="evenodd" d="M12.9389 5.51133C12.9389 6.28453 12.3121 6.91133 11.5389 6.91133C10.7657 6.91133 10.1389 6.28453 10.1389 5.51133C10.1389 4.73813 10.7657 4.11133 11.5389 4.11133C11.9102 4.11133 12.2663 4.25883 12.5289 4.52138C12.7914 4.78393 12.9389 5.14003 12.9389 5.51133Z" stroke="#8391A1" stroke-width="1.5" stroke-linecap="round" stroke-linejoin="round"/>
<path d="M12.2 14.067C13.6137 14.1831 14.8596 13.1445 15 11.733C14.8591 10.3218 13.6134 9.28387 12.2 9.39998" stroke="#8391A1" stroke-width="1.5" stroke-linecap="round" stroke-linejoin="round"/>
</svg>
