<svg width="13" height="16" viewBox="0 0 13 16" fill="none" xmlns="http://www.w3.org/2000/svg">
<path d="M4.78906 0.25C4.37485 0.25 4.03906 0.585786 4.03906 1C4.03906 1.41421 4.37485 1.75 4.78906 1.75V0.25ZM8.21106 1.75C8.62528 1.75 8.96106 1.41421 8.96106 1C8.96106 0.585786 8.62528 0.25 8.21106 0.25V1.75ZM4.50004 13.336C4.91426 13.336 5.25004 13.0002 5.25004 12.586C5.25004 12.1718 4.91426 11.836 4.50004 11.836V13.336ZM2.44604 12.586L2.43805 13.336H2.44604V12.586ZM1.23104 11.886L1.87592 11.5029L1.8694 11.4923L1.23104 11.886ZM1.36504 7.74601L0.615045 7.74V7.74601H1.36504ZM6.50004 2.68701L6.49487 3.43707L6.50521 3.437L6.50004 2.68701ZM11.635 7.74701L12.3851 7.74701L12.385 7.74115L11.635 7.74701ZM11.769 11.885L11.1313 11.49L11.1243 11.5019L11.769 11.885ZM10.554 12.585L10.554 13.3351L10.562 13.335L10.554 12.585ZM8.50005 11.835C8.08583 11.835 7.75005 12.1708 7.75005 12.585C7.75005 12.9992 8.08583 13.335 8.50005 13.335V11.835ZM5.25006 12.585C5.25006 12.1707 4.91427 11.835 4.50006 11.835C4.08585 11.835 3.75006 12.1707 3.75006 12.585H5.25006ZM4.50006 13.068L3.74994 13.068L3.75018 13.0812L4.50006 13.068ZM6.50006 15L6.51277 14.2501C6.5043 14.2499 6.49583 14.2499 6.48736 14.2501L6.50006 15ZM8.50006 13.069L9.25006 13.0826V13.069H8.50006ZM9.25006 12.586C9.25006 12.1717 8.91427 11.836 8.50006 11.836C8.08585 11.836 7.75006 12.1717 7.75006 12.586H9.25006ZM4.50006 11.8361C4.08585 11.8361 3.75006 12.1718 3.75006 12.5861C3.75006 13.0003 4.08585 13.3361 4.50006 13.3361V11.8361ZM8.50006 13.3361C8.91427 13.3361 9.25006 13.0003 9.25006 12.5861C9.25006 12.1718 8.91427 11.8361 8.50006 11.8361V13.3361ZM4.78906 1.75H8.21106V0.25H4.78906V1.75ZM4.50004 11.836H2.44604V13.336H4.50004V11.836ZM2.45404 11.8361C2.21638 11.8335 1.99723 11.7073 1.87583 11.5029L0.586259 12.2691C0.975055 12.9235 1.67691 13.3279 2.43805 13.336L2.45404 11.8361ZM1.8694 11.4923C1.73259 11.2705 1.7124 10.9707 1.81415 10.4318C1.87034 10.1342 1.92445 9.93464 1.99609 9.58412C2.05785 9.28194 2.11504 8.9386 2.11504 8.58601H0.615045C0.615045 8.78643 0.581865 9.01272 0.526469 9.28375C0.480954 9.50645 0.391122 9.88374 0.340191 10.1535C0.227686 10.7494 0.140499 11.5465 0.592692 12.2797L1.8694 11.4923ZM2.11504 8.58601V7.74601H0.615045V8.58601H2.11504ZM2.11502 7.75203C2.13426 5.35157 4.0944 3.42044 6.49487 3.437L6.50522 1.93703C3.27699 1.91477 0.640945 4.5118 0.615069 7.74L2.11502 7.75203ZM6.50521 3.437C8.90602 3.42045 10.8663 5.35209 10.8851 7.75288L12.385 7.74115C12.3598 4.5125 9.72355 1.91477 6.49487 1.93703L6.50521 3.437ZM10.885 7.74701V8.58501H12.385V7.74701H10.885ZM10.885 8.58501C10.885 8.93838 10.9422 9.28231 11.0039 9.58512C11.0758 9.93716 11.1296 10.1351 11.1859 10.4338C11.2878 10.9733 11.2671 11.271 11.1314 11.4901L12.4067 12.2799C12.86 11.548 12.7723 10.7507 12.6599 10.1555C12.6092 9.88678 12.519 9.50743 12.4737 9.28525C12.4183 9.01385 12.385 8.78664 12.385 8.58501H10.885ZM11.1243 11.5019C11.0029 11.7063 10.7837 11.8325 10.5461 11.8351L10.562 13.335C11.3232 13.3269 12.025 12.9225 12.4138 12.2681L11.1243 11.5019ZM10.554 11.835H8.50005V13.335H10.554V11.835ZM3.75006 12.585V13.068H5.25006V12.585H3.75006ZM3.75018 13.0812C3.77665 14.5808 5.01318 15.7752 6.51276 15.7499L6.48736 14.2501C5.81567 14.2614 5.2618 13.7264 5.24994 13.0547L3.75018 13.0812ZM6.48735 15.7499C7.98641 15.7753 9.22271 14.5816 9.24994 13.0826L7.75018 13.0553C7.73799 13.7268 7.18422 14.2614 6.51277 14.2501L6.48735 15.7499ZM9.25006 13.069V12.586H7.75006V13.069H9.25006ZM4.50006 13.3361H8.50006V11.8361H4.50006V13.3361Z" fill="#8391A1"/>
</svg>
