<svg width="16" height="18" viewBox="0 0 16 18" fill="none" xmlns="http://www.w3.org/2000/svg">
<path fill-rule="evenodd" clip-rule="evenodd" d="M6.00195 9.01283C6.00175 8.05867 6.67559 7.23724 7.61138 7.05091C8.54717 6.86458 9.48427 7.36524 9.84957 8.2467C10.2149 9.12816 9.90664 10.1449 9.11337 10.6752C8.3201 11.2054 7.26275 11.1014 6.58795 10.4268C6.21285 10.0518 6.00207 9.54322 6.00195 9.01283Z" stroke="#8391A1" stroke-width="1.5" stroke-linecap="round" stroke-linejoin="round"/>
<path fill-rule="evenodd" clip-rule="evenodd" d="M6.572 2.46781C6.55825 1.94809 6.82766 1.46185 7.27561 1.19793C7.72355 0.934022 8.27944 0.934022 8.72738 1.19793C9.17533 1.46185 9.44474 1.94809 9.431 2.46781V3.18481C10.5161 3.45066 11.5054 4.01454 12.287 4.81281L12.856 4.47881C13.1848 4.28632 13.5773 4.23446 13.9448 4.33495C14.3124 4.43544 14.6239 4.6798 14.809 5.01281C15.2039 5.70718 14.9716 6.58984 14.286 6.99981L13.756 7.31081C14.0817 8.42075 14.0817 9.60088 13.756 10.7108L14.286 11.0218C14.9739 11.4319 15.2066 12.3175 14.809 13.0128C14.6235 13.3455 14.3119 13.5894 13.9444 13.6895C13.5769 13.7896 13.1846 13.7375 12.856 13.5448L12.287 13.2108C11.5053 14.01 10.5157 14.5746 9.43 14.8408V15.5578C9.44374 16.0775 9.17433 16.5638 8.72638 16.8277C8.27844 17.0916 7.72255 17.0916 7.27461 16.8277C6.82666 16.5638 6.55725 16.0775 6.571 15.5578V14.8408C5.48586 14.575 4.49664 14.0111 3.715 13.2128L3.146 13.5468C2.81727 13.739 2.42501 13.7907 2.05773 13.6902C1.69046 13.5897 1.37912 13.3455 1.194 13.0128C0.79909 12.3184 1.03142 11.4358 1.717 11.0258L2.247 10.7148C1.92132 9.60488 1.92132 8.42475 2.247 7.31481L1.717 7.00381C1.02905 6.59369 0.796422 5.70808 1.194 5.01281C1.37946 4.68014 1.69113 4.43621 2.05862 4.3361C2.42611 4.236 2.81843 4.28816 3.147 4.48081L3.716 4.81481C4.49727 4.01545 5.48653 3.4505 6.572 3.18381V2.46781Z" stroke="#8391A1" stroke-width="1.5" stroke-linecap="round" stroke-linejoin="round"/>
</svg>
