<svg width="16" height="16" viewBox="0 0 16 16" fill="none" xmlns="http://www.w3.org/2000/svg">
<path d="M7.972 6.526C7.972 6.11179 7.63621 5.776 7.222 5.776C6.80779 5.776 6.472 6.11179 6.472 6.526H7.972ZM7.222 8.895H6.472C6.472 9.30921 6.80779 9.645 7.222 9.645V8.895ZM9.556 9.645C9.97021 9.645 10.306 9.30921 10.306 8.895C10.306 8.48079 9.97021 8.145 9.556 8.145V9.645ZM13.3892 15.4353C13.6296 15.7726 14.098 15.8512 14.4353 15.6108C14.7726 15.3704 14.8512 14.902 14.6108 14.5647L13.3892 15.4353ZM12.4728 11.5647C12.2324 11.2274 11.764 11.1488 11.4267 11.3892C11.0894 11.6296 11.0108 12.098 11.2512 12.4353L12.4728 11.5647ZM12.9655 0.252867C12.5529 0.216686 12.189 0.521858 12.1529 0.934489C12.1167 1.34712 12.4219 1.71095 12.8345 1.74713L12.9655 0.252867ZM14.2646 3.02807C14.3458 3.43424 14.7409 3.69766 15.1471 3.61644C15.5532 3.53521 15.8167 3.1401 15.7354 2.73393L14.2646 3.02807ZM4.137 12L4.67473 11.4772L4.67339 11.4758L4.137 12ZM2.556 8.105L3.30604 8.10705L3.30598 8.09951L2.556 8.105ZM8 2.579L8.00572 1.82893L7.99428 1.82902L8 2.579ZM13.444 8.105L12.6939 8.09951L12.694 8.11063L13.444 8.105ZM8 13.632L8 14.382L8.00572 14.382L8 13.632ZM4.74786 12.4351C4.98818 12.0978 4.90951 11.6295 4.57214 11.3891C4.23477 11.1488 3.76646 11.2275 3.52614 11.5649L4.74786 12.4351ZM1.38914 14.5649C1.14882 14.9022 1.22749 15.3705 1.56486 15.6109C1.90223 15.8512 2.37054 15.7725 2.61086 15.4351L1.38914 14.5649ZM3.16551 1.74713C3.57814 1.71095 3.88331 1.34712 3.84713 0.934489C3.81095 0.521858 3.44712 0.216686 3.03449 0.252867L3.16551 1.74713ZM0.264561 2.73393C0.183337 3.1401 0.446759 3.53521 0.85293 3.61644C1.2591 3.69766 1.65421 3.43424 1.73544 3.02807L0.264561 2.73393ZM6.472 6.526V8.895H7.972V6.526H6.472ZM7.222 9.645H9.556V8.145H7.222V9.645ZM14.6108 14.5647L12.4728 11.5647L11.2512 12.4353L13.3892 15.4353L14.6108 14.5647ZM12.8345 1.74713C13.5427 1.80923 14.1252 2.33093 14.2646 3.02807L15.7354 2.73393C15.4654 1.38363 14.3373 0.373148 12.9655 0.252867L12.8345 1.74713ZM4.67339 11.4758C3.7936 10.5756 3.30255 9.3658 3.306 8.10705L1.806 8.10295C1.80148 9.75497 2.44594 11.3427 3.60061 12.5242L4.67339 11.4758ZM3.30598 8.09951C3.28684 5.48453 5.39075 3.34893 8.00572 3.32898L7.99428 1.82902C4.55108 1.85529 1.78081 4.66729 1.80602 8.11049L3.30598 8.09951ZM7.99428 3.32898C10.6093 3.34893 12.7132 5.48453 12.694 8.09951L14.194 8.11049C14.2192 4.66729 11.4489 1.85529 8.00572 1.82902L7.99428 3.32898ZM12.694 8.11063C12.7136 10.7259 10.6096 12.8621 7.99428 12.882L8.00572 14.382C11.4494 14.3557 14.2198 11.543 14.194 8.09937L12.694 8.11063ZM8 12.882C6.74735 12.882 5.54796 12.3753 4.67473 11.4772L3.59927 12.5228C4.75492 13.7114 6.34221 14.382 8 14.382L8 12.882ZM3.52614 11.5649L1.38914 14.5649L2.61086 15.4351L4.74786 12.4351L3.52614 11.5649ZM3.03449 0.252867C1.66272 0.373148 0.534587 1.38363 0.264561 2.73393L1.73544 3.02807C1.87485 2.33093 2.45729 1.80923 3.16551 1.74713L3.03449 0.252867Z" fill="#8391A1"/>
</svg>
