<svg width="16" height="18" viewBox="0 0 16 18" fill="none" xmlns="http://www.w3.org/2000/svg">
<path d="M14.9324 9.74381C15.3466 9.74381 15.6824 9.40802 15.6824 8.99381C15.6824 8.57959 15.3466 8.24381 14.9324 8.24381V9.74381ZM14.9884 12.8438C15.4026 12.8438 15.7384 12.508 15.7384 12.0938C15.7384 11.6796 15.4026 11.3438 14.9884 11.3438V12.8438ZM15.6724 8.8715C15.6048 8.46283 15.2188 8.1863 14.8101 8.25385C14.4014 8.3214 14.1249 8.70745 14.1925 9.11612L15.6724 8.8715ZM15.0054 9.88281L15.7554 9.88281L15.7554 9.88277L15.0054 9.88281ZM14.2408 12.0301C14.2078 12.443 14.5158 12.8045 14.9287 12.8374C15.3416 12.8704 15.7031 12.5624 15.736 12.1495L14.2408 12.0301ZM14.1921 9.11416C14.2586 9.52301 14.6439 9.80056 15.0528 9.73409C15.4616 9.66762 15.7392 9.2823 15.6727 8.87345L14.1921 9.11416ZM11.3806 4.02556C10.9828 3.91005 10.5667 4.13886 10.4512 4.53664C10.3357 4.93442 10.5645 5.35053 10.9623 5.46605L11.3806 4.02556ZM15.7364 12.1484C15.7666 11.7353 15.4561 11.376 15.043 11.3458C14.6299 11.3156 14.2706 11.6261 14.2404 12.0392L15.7364 12.1484ZM9.75542 16.9938L9.75542 17.7438L9.76081 17.7438L9.75542 16.9938ZM6.25542 16.9938L6.24949 17.7438H6.25542V16.9938ZM1.00542 11.6608L1.75542 11.6666V11.6608H1.00542ZM1.00542 9.88281L1.75542 9.88281L1.75542 9.88209L1.00542 9.88281ZM2.03958 8.27697C2.18216 7.88807 1.98248 7.45722 1.59358 7.31464C1.20468 7.17206 0.773832 7.37174 0.631251 7.76064L2.03958 8.27697ZM10.966 5.46684C11.3642 5.58085 11.7794 5.35046 11.8934 4.95224C12.0075 4.55403 11.7771 4.13879 11.3789 4.02478L10.966 5.46684ZM9.75542 4.54581L9.75661 3.79581H9.75542V4.54581ZM6.25542 4.54581L6.25542 3.7958L6.25194 3.79582L6.25542 4.54581ZM0.629887 7.76439C0.489377 8.15405 0.691348 8.58383 1.081 8.72434C1.47066 8.86485 1.90044 8.66288 2.04095 8.27322L0.629887 7.76439ZM10.516 5.10854C10.7163 5.47108 11.1726 5.60259 11.5351 5.40226C11.8977 5.20193 12.0292 4.74563 11.8289 4.38308L10.516 5.10854ZM10.3524 3.26181L9.6889 3.61144C9.69121 3.61583 9.69357 3.6202 9.69597 3.62454L10.3524 3.26181ZM7.74705 1.15711L7.54471 1.8793L7.54471 1.8793L7.74705 1.15711ZM4.42742 1.60181L4.04214 0.958328L4.03974 0.959777L4.42742 1.60181ZM3.17542 2.35781L2.78768 1.71569L2.77704 1.72236L3.17542 2.35781ZM0.639557 8.29859C0.794078 8.6829 1.23089 8.86919 1.6152 8.71467C1.99951 8.56015 2.1858 8.12334 2.03128 7.73902L0.639557 8.29859ZM14.9324 8.24381H13.0424V9.74381H14.9324V8.24381ZM13.0424 8.24381C11.7722 8.24381 10.7424 9.27355 10.7424 10.5438H12.2424C12.2424 10.102 12.6006 9.74381 13.0424 9.74381V8.24381ZM10.7424 10.5438C10.7424 11.8141 11.7722 12.8438 13.0424 12.8438V11.3438C12.6006 11.3438 12.2424 10.9856 12.2424 10.5438H10.7424ZM13.0424 12.8438H14.9884V11.3438H13.0424V12.8438ZM14.1925 9.11612C14.2343 9.36955 14.2554 9.62598 14.2554 9.88285L15.7554 9.88277C15.7554 9.54398 15.7276 9.20576 15.6724 8.8715L14.1925 9.11612ZM14.2554 9.88281V11.6608H15.7554V9.88281H14.2554ZM14.2554 11.6608C14.2554 11.7851 14.2505 11.9082 14.2408 12.0301L15.736 12.1495C15.749 11.9874 15.7554 11.8245 15.7554 11.6608H14.2554ZM15.6727 8.87345C15.2973 6.56465 13.6269 4.67792 11.3806 4.02556L10.9623 5.46605C12.6526 5.95695 13.9097 7.37675 14.1921 9.11416L15.6727 8.87345ZM14.2404 12.0392C14.0683 14.3969 12.1139 16.2268 9.75003 16.2438L9.76081 17.7438C12.9066 17.7212 15.5073 15.2859 15.7364 12.1484L14.2404 12.0392ZM9.75542 16.2438H6.25542V17.7438H9.75542V16.2438ZM6.26135 16.2438C3.75317 16.224 1.73588 14.1748 1.75539 11.6666L0.25544 11.655C0.229485 14.9915 2.91299 17.7174 6.24949 17.7438L6.26135 16.2438ZM1.75542 11.6608V9.88281H0.255417V11.6608H1.75542ZM1.75542 9.88209C1.75489 9.33449 1.85109 8.79111 2.03958 8.27697L0.631251 7.76064C0.381952 8.44062 0.25472 9.15929 0.255418 9.88353L1.75542 9.88209ZM11.3789 4.02478C10.8513 3.87374 10.3053 3.79668 9.75661 3.79581L9.75423 5.29581C10.1641 5.29646 10.5719 5.35402 10.966 5.46684L11.3789 4.02478ZM9.75542 3.79581H6.25542V5.29581H9.75542V3.79581ZM6.25194 3.79582C3.7307 3.8075 1.48515 5.39262 0.629887 7.76439L2.04095 8.27322C2.68261 6.4938 4.36733 5.30456 6.25889 5.2958L6.25194 3.79582ZM11.8289 4.38308L11.0089 2.89908L9.69597 3.62454L10.516 5.10854L11.8289 4.38308ZM11.0159 2.91217C10.3774 1.70031 9.26841 0.804472 7.94938 0.434922L7.54471 1.8793C8.467 2.1377 9.24239 2.76409 9.6889 3.61144L11.0159 2.91217ZM7.94938 0.434922C6.63036 0.0653719 5.2174 0.254651 4.04214 0.958333L4.8127 2.24528C5.63446 1.75326 6.62243 1.62091 7.54471 1.8793L7.94938 0.434922ZM4.03974 0.959777L2.78774 1.71578L3.5631 2.99984L4.8151 2.24384L4.03974 0.959777ZM2.77704 1.72236C0.566694 3.1081 -0.333644 5.87811 0.639557 8.29859L2.03128 7.73902C1.32896 5.99227 1.97869 3.99328 3.5738 2.99325L2.77704 1.72236Z" fill="#8391A1"/>
</svg>
